# File created by Blade
# Date/Time:  Thu Sep 25 18:39:44 2014
# Frame Rate: 120.000 fps
#------------------------------------------------------
:FULLY-SPECIFIED
:DEGREES
1794
root -0.709835 33.016581 -3.215911 6.811715 1.498840 -2.243355
Spine -10.093371 -13.340396 5.965322
Head -16.155765 15.237788 3.776283
LeftShoulder 20.634019 -10.437310 33.052730
LeftArm 126.838673 18.161834 -47.695735
LeftForeArm -10.691225 0.000000 116.161842
LeftHand -14.978344 -0.000000 -42.558504
LeftHandThumb1 -26.253704 0.000000 33.147579
RightShoulder 1.734276 32.623380 -21.924293
RightArm 33.600480 -24.951708 98.504578
RightForeArm 9.140007 -0.000000 127.364498
RightHand 3.563899 -0.000000 46.922873
RightHandThumb1 -24.326973 -0.000000 -32.862282
LeftUpLeg -1.558075 8.612069 2.433477
LeftLeg -0.697064 -0.000000 0.000000
LeftFoot -9.938592 1.709483 -9.486471
LeftToeBase 9.941045 -0.000000 -0.000000
RightUpLeg -3.288636 -4.529487 0.994569
RightLeg 2.423543 -0.000000 -0.000000
RightFoot -7.387597 -1.774608 0.657722
RightToeBase -0.549853 -0.000000 0.000000
1795
root -0.710852 33.016540 -3.214071 6.813866 1.495362 -2.235959
Spine -10.115347 -13.362709 5.973355
Head -16.096319 15.231533 3.771304
LeftShoulder 20.643391 -10.712916 33.021698
LeftArm 126.617611 18.373783 -47.808322
LeftForeArm -10.659848 -0.000000 116.211200
LeftHand -15.055859 0.000000 -42.630681
LeftHandThumb1 -26.253704 0.000000 33.147579
RightShoulder 1.730401 32.654091 -21.947936
RightArm 33.556569 -24.922220 98.552351
RightForeArm 9.127630 -0.000000 127.386843
RightHand 3.635010 -0.000000 46.981629
RightHandThumb1 -24.326973 -0.000000 -32.862282
LeftUpLeg -1.553990 8.615138 2.425879
LeftLeg -0.708340 -0.000000 0.000000
LeftFoot -9.930718 1.714436 -9.478002
LeftToeBase 9.947294 -0.000000 -0.000000
RightUpLeg -3.282113 -4.527552 0.990948
RightLeg 2.408511 -0.000000 -0.000000
RightFoot -7.380220 -1.780115 0.643208
RightToeBase -0.558028 -0.000000 0.000000
1796
root -0.713188 33.015843 -3.212470 6.811121 1.489867 -2.242369
Spine -10.128507 -13.375498 5.986080
Head -16.031377 15.223134 3.786776
LeftShoulder 20.611846 -10.808831 33.025636
LeftArm 126.570368 18.449534 -47.857946
LeftForeArm -10.632278 0.000000 116.185019
LeftHand -14.948124 -0.000000 -42.704917
LeftHandThumb1 -26.253704 0.000000 33.147579
RightShoulder 1.719592 32.785958 -21.975782
RightArm 33.408611 -24.878123 98.618827
RightForeArm 9.131668 -0.000000 127.409583
RightHand 3.639822 -0.000000 46.977759
RightHandThumb1 -24.326973 -0.000000 -32.862282
LeftUpLeg -1.548192 8.633221 2.435985
LeftLeg -0.695939 -0.000000 0.000000
LeftFoot -9.893231 1.689899 -9.348024
LeftToeBase 9.715033 -0.000000 -0.000000
RightUpLeg -3.278593 -4.507980 0.994655
RightLeg 2.416790 -0.000000 -0.000000
RightFoot -7.397188 -1.764542 0.669502
RightToeBase -0.550773 -0.000000 0.000000
1797
root -0.715442 33.015821 -3.210758 6.804870 1.491178 -2.244897
Spine -10.142652 -13.404544 6.007609
Head -15.956808 15.224308 3.771009
LeftShoulder 20.587650 -10.903484 32.996527
LeftArm 126.493359 18.504621 -47.895628
LeftForeArm -10.660186 -0.000000 116.228053
LeftHand -15.072887 0.000000 -42.680749
LeftHandThumb1 -26.253704 0.000000 33.147579
RightShoulder 1.726050 32.863205 -22.007548
RightArm 33.329834 -24.853010 98.673241
RightForeArm 9.123769 -0.000000 127.414887
RightHand 3.621706 -0.000000 47.046392
RightHandThumb1 -24.326973 -0.000000 -32.862282
LeftUpLeg -1.537242 8.641499 2.445812
LeftLeg -0.706933 -0.000000 0.000000
LeftFoot -9.945885 1.678855 -9.490860
LeftToeBase 9.962739 -0.000000 -0.000000
RightUpLeg -3.267541 -4.507927 1.002764
RightLeg 2.413004 -0.000000 -0.000000
RightFoot -7.396311 -1.782557 0.647874
RightToeBase -0.551419 -0.000000 0.000000
1798
root -0.716725 33.015490 -3.208621 6.800445 1.489596 -2.240731
Spine -10.154561 -13.429691 6.021941
Head -15.878644 15.200994 3.793583
LeftShoulder 20.568027 -11.053862 32.963560
LeftArm 126.386961 18.612799 -47.952439
LeftForeArm -10.661729 0.000000 116.251047
LeftHand -15.118365 -0.000000 -42.670458
LeftHandThumb1 -26.253704 0.000000 33.147579
RightShoulder 1.728885 33.003347 -22.055922
RightArm 33.161175 -24.803237 98.781519
RightForeArm 9.143845 -0.000000 127.424939
RightHand 3.727933 -0.000000 47.038068
RightHandThumb1 -24.326973 -0.000000 -32.862282
LeftUpLeg -1.526187 8.647971 2.444996
LeftLeg -0.712846 -0.000000 0.000000
LeftFoot -9.943788 1.675947 -9.515065
LeftToeBase 9.957461 -0.000000 -0.000000
RightUpLeg -3.255204 -4.499453 0.998708
RightLeg 2.404501 -0.000000 -0.000000
RightFoot -7.387650 -1.780021 0.659494
RightToeBase -0.576883 -0.000000 0.000000
1799
root -0.719114 33.015288 -3.206029 6.799678 1.488891 -2.243538
Spine -10.187824 -13.447097 6.044457
Head -15.806685 15.193671 3.753032
LeftShoulder 20.573266 -11.210786 32.938790
LeftArm 126.254339 18.725193 -48.021329
LeftForeArm -10.637692 -0.000000 116.288735
LeftHand -15.164001 -0.000000 -42.647264
LeftHandThumb1 -26.253704 0.000000 33.147579
RightShoulder 1.731392 33.093116 -22.101171
RightArm 33.055318 -24.793468 98.834973
RightForeArm 9.143187 0.000000 127.429789
RightHand 3.526886 -0.000000 47.014717
RightHandThumb1 -24.326973 -0.000000 -32.862282
LeftUpLeg -1.518395 8.658960 2.450149
LeftLeg -0.716776 -0.000000 0.000000
LeftFoot -9.948398 1.681252 -9.517401
LeftToeBase 9.962570 -0.000000 -0.000000
RightUpLeg -3.243537 -4.493817 1.004744
RightLeg 2.390891 -0.000000 -0.000000
RightFoot -7.386811 -1.791298 0.643296
RightToeBase -0.598795 -0.000000 0.000000
1800
root -0.721213 33.014871 -3.203919 6.794350 1.482935 -2.244786
Spine -10.202255 -13.479559 6.061859
Head -15.748689 15.190614 3.753186
LeftShoulder 20.569856 -11.478399 32.912049
LeftArm 126.035582 18.924436 -48.119543
LeftForeArm -10.476313 -0.000000 116.340428
LeftHand -15.148636 -0.000000 -42.593250
LeftHandThumb1 -26.253704 0.000000 33.147579
RightShoulder 1.742627 33.194104 -22.134238
RightArm 32.943888 -24.768151 98.906240
RightForeArm 9.159430 -0.000000 127.443642
RightHand 3.493142 -0.000000 47.027161
RightHandThumb1 -24.326973 -0.000000 -32.862282
LeftUpLeg -1.504829 8.676763 2.456611
LeftLeg -0.724140 -0.000000 0.000000
LeftFoot -9.940798 1.654903 -9.533574
LeftToeBase 9.919782 -0.000000 -0.000000
RightUpLeg -3.234828 -4.475263 1.008577
RightLeg 2.390639 -0.000000 -0.000000
RightFoot -7.403587 -1.796947 0.672595
RightToeBase -0.512646 -0.000000 0.000000
1801
root -0.723204 33.015242 -3.202229 6.788671 1.485711 -2.241124
Spine -10.211008 -13.515215 6.074567
Head -15.679956 15.188208 3.766646
LeftShoulder 20.556294 -11.712927 32.870433
LeftArm 125.849278 19.094676 -48.203958
LeftForeArm -10.456369 0.000000 116.375204
LeftHand -15.158430 -0.000000 -42.569250
LeftHandThumb1 -26.253704 0.000000 33.147579
RightShoulder 1.766942 33.369824 -22.177492
RightArm 32.728004 -24.701695 99.025076
RightForeArm 9.173214 -0.000000 127.479301
RightHand 3.768951 -0.000000 47.038997
RightHandThumb1 -24.326973 -0.000000 -32.862282
LeftUpLeg -1.495246 8.669751 2.457177
LeftLeg -0.728626 -0.000000 0.000000
LeftFoot -9.943820 1.677289 -9.511873
LeftToeBase 9.980161 -0.000000 -0.000000
RightUpLeg -3.225132 -4.464078 1.006947
RightLeg 2.391492 -0.000000 -0.000000
RightFoot -7.405692 -1.811202 0.681870
RightToeBase -0.536309 -0.000000 0.000000
1802
root -0.725442 33.015243 -3.199637 6.779247 1.487984 -2.240342
Spine -10.227902 -13.539685 6.092331
Head -15.611855 15.164486 3.742865
LeftShoulder 20.529761 -11.761173 32.854253
LeftArm 125.821524 19.157806 -48.247463
LeftForeArm -10.541003 0.000000 116.306191
LeftHand -14.932271 -0.000000 -42.697081
LeftHandThumb1 -26.253704 0.000000 33.147579
RightShoulder 1.787426 33.495486 -22.228112
RightArm 32.562361 -24.643926 99.127691
RightForeArm 9.180051 -0.000000 127.514242
RightHand 3.773084 0.000000 47.077343
RightHandThumb1 -24.326973 -0.000000 -32.862282
LeftUpLeg -1.479078 8.679035 2.464011
LeftLeg -0.732851 -0.000000 0.000000
LeftFoot -9.939897 1.649471 -9.531781
LeftToeBase 9.981502 -0.000000 -0.000000
RightUpLeg -3.206648 -4.462640 1.010714
RightLeg 2.378595 -0.000000 -0.000000
RightFoot -7.384213 -1.827061 0.634592
RightToeBase -0.613931 -0.000000 0.000000
1803
root -0.727559 33.015186 -3.197833 6.776203 1.484246 -2.243184
Spine -10.248668 -13.556233 6.112312
Head -15.546230 15.162007 3.738991
LeftShoulder 20.525741 -11.896469 32.820817
LeftArm 125.709808 19.256662 -48.308304
LeftForeArm -10.559542 -0.000000 116.305632
LeftHand -14.901114 0.000000 -42.704785
LeftHandThumb1 -26.253704 0.000000 33.147579
RightShoulder 1.803587 33.634722 -22.275884
RightArm 32.392144 -24.594286 99.221706
RightForeArm 9.144733 -0.000000 127.549291
RightHand 3.791022 -0.000000 47.083171
RightHandThumb1 -24.326973 -0.000000 -32.862282
LeftUpLeg -1.471131 8.680094 2.469262
LeftLeg -0.729054 -0.000000 0.000000
LeftFoot -9.889920 1.653252 -9.382145
LeftToeBase 9.748667 -0.000000 -0.000000
RightUpLeg -3.201969 -4.455177 1.016001
RightLeg 2.382637 -0.000000 -0.000000
RightFoot -7.408260 -1.818679 0.660447
RightToeBase -0.502638 -0.000000 0.000000
1804
root -0.729685 33.015318 -3.195622 6.773561 1.486276 -2.244025
Spine -10.279447 -13.588142 6.130851
Head -15.480883 15.159993 3.719923
LeftShoulder 20.530970 -12.044454 32.788654
LeftArm 125.583672 19.360113 -48.373107
LeftForeArm -10.565837 -0.000000 116.291265
LeftHand -14.795164 -0.000000 -42.695995
LeftHandThumb1 -26.253704 0.000000 33.147579
RightShoulder 1.834649 33.689419 -22.290836
RightArm 32.315356 -24.538312 99.287247
RightForeArm 9.147856 -0.000000 127.572699
RightHand 3.797477 -0.000000 47.178790
RightHandThumb1 -24.326973 -0.000000 -32.862282
LeftUpLeg -1.462173 8.680914 2.476657
LeftLeg -0.740660 -0.000000 0.000000
LeftFoot -9.938008 1.654273 -9.533322
LeftToeBase 9.973228 -0.000000 -0.000000
RightUpLeg -3.190598 -4.455262 1.019279
RightLeg 2.372898 -0.000000 -0.000000
RightFoot -7.397111 -1.818173 0.670116
RightToeBase -0.580471 -0.000000 0.000000
1805
root -0.731092 33.015493 -3.193877 6.768918 1.479299 -2.237342
Spine -10.295301 -13.602679 6.142710
Head -15.410567 15.130519 3.730635
LeftShoulder 20.533121 -12.181727 32.744537
LeftArm 125.462349 19.438291 -48.409428
LeftForeArm -10.500084 -0.000000 116.354823
LeftHand -14.918975 -0.000000 -42.590834
LeftHandThumb1 -26.253704 0.000000 33.147579
RightShoulder 1.849890 33.896519 -22.331442
RightArm 32.078582 -24.477840 99.419032
RightForeArm 9.128671 -0.000000 127.618969
RightHand 3.644301 -0.000000 47.226474
RightHandThumb1 -24.326973 -0.000000 -32.862282
LeftUpLeg -1.454035 8.709457 2.471563
LeftLeg -0.741566 -0.000000 0.000000
LeftFoot -9.929375 1.646011 -9.538425
LeftToeBase 9.945592 -0.000000 -0.000000
RightUpLeg -3.185217 -4.431679 1.015994
RightLeg 2.377489 -0.000000 -0.000000
RightFoot -7.413607 -1.848696 0.672188
RightToeBase -0.493358 -0.000000 0.000000
1806
root -0.734023 33.015195 -3.191825 6.763097 1.475082 -2.242574
Spine -10.320091 -13.636160 6.165556
Head -15.354230 15.159117 3.703209
LeftShoulder 20.538606 -12.319368 32.711340
LeftArm 125.329507 19.541742 -48.477148
LeftForeArm -10.504709 -0.000000 116.372838
LeftHand -14.921854 0.000000 -42.606157
LeftHandThumb1 -26.253704 0.000000 33.147579
RightShoulder 1.897831 33.991253 -22.323475
RightArm 31.977488 -24.426141 99.474583
RightForeArm 9.085013 -0.000000 127.649462
RightHand 3.615357 0.000000 47.281823
RightHandThumb1 -24.326973 -0.000000 -32.862282
LeftUpLeg -1.442756 8.721423 2.481918
LeftLeg -0.743086 -0.000000 0.000000
LeftFoot -9.937807 1.632200 -9.529508
LeftToeBase 9.933031 -0.000000 -0.000000
RightUpLeg -3.173243 -4.412845 1.023186
RightLeg 2.372110 -0.000000 -0.000000
RightFoot -7.405257 -1.856880 0.650280
RightToeBase -0.502477 -0.000000 0.000000
